<?xml version="1.0" encoding="utf-8"?>
<!-- Generator: Adobe Illustrator 26.2.1, SVG Export Plug-In . SVG Version: 6.00 Build 0)  -->
<svg version="1.1" id="Layer_1" xmlns="http://www.w3.org/2000/svg" xmlns:xlink="http://www.w3.org/1999/xlink" x="0px" y="0px"
	 viewBox="0 0 15 15" style="enable-background:new 0 0 15 15;" xml:space="preserve">
<style type="text/css">
	.st0{fill:#FFFFFF;}
</style>
<path class="st0" d="M4.5,12.5l-0.4,0.3C4.2,12.9,4.3,13,4.5,13V12.5z M0.5,7.5L0.1,7.2C0,7.4,0,7.6,0.1,7.8L0.5,7.5z M4.5,2.5V2
	C4.3,2,4.2,2.1,4.1,2.2L4.5,2.5z M14,3.5v8h1v-8H14z M13.5,12h-9v1h9V12z M4.9,12.2l-4-5L0.1,7.8l4,5L4.9,12.2z M0.9,7.8l4-5
	L4.1,2.2l-4,5L0.9,7.8z M4.5,3h9V2h-9V3z M14,11.5c0,0.3-0.2,0.5-0.5,0.5v1c0.8,0,1.5-0.7,1.5-1.5H14z M15,3.5C15,2.7,14.3,2,13.5,2
	v1C13.8,3,14,3.2,14,3.5H15z M6.1,5.9l4,4l0.7-0.7l-4-4L6.1,5.9z M10.1,5.1l-4,4l0.7,0.7l4-4L10.1,5.1z"/>
</svg>
