<?xml version="1.0" encoding="utf-8"?>
<!-- Generator: Adobe Illustrator 26.2.1, SVG Export Plug-In . SVG Version: 6.00 Build 0)  -->
<svg version="1.1" id="Layer_1" xmlns="http://www.w3.org/2000/svg" xmlns:xlink="http://www.w3.org/1999/xlink" x="0px" y="0px"
	 viewBox="0 0 24 24" style="enable-background:new 0 0 24 24;" xml:space="preserve">
<style type="text/css">
	.st0{fill:none;}
	.st1{fill:#FFFFFF;}
</style>
<rect x="-1.6" y="-1.6" class="st0" width="27.3" height="27.3"/>
<g>
	<path class="st1" d="M12,0.7C5.8,0.7,0.7,5.8,0.7,12S5.8,23.4,12,23.4S23.4,18.3,23.4,12S18.3,0.7,12,0.7z M13.2,18.9h-2.3v-2.3
		h2.3V18.9z M13.2,14.1v1.3h-2.3v-2.3c0-0.6,0.5-1.1,1.1-1.1c1.3,0,2.3-1,2.3-2.3s-1-2.3-2.3-2.3s-2.3,1-2.3,2.3H7.5
		c0-2.5,2-4.5,4.5-4.5s4.5,2,4.5,4.5C16.6,11.9,15.1,13.6,13.2,14.1z"/>
</g>
</svg>
