<?xml version="1.0" encoding="utf-8"?>
<!-- Generator: Adobe Illustrator 26.2.1, SVG Export Plug-In . SVG Version: 6.00 Build 0)  -->
<svg version="1.1" id="Capa_1" xmlns="http://www.w3.org/2000/svg" xmlns:xlink="http://www.w3.org/1999/xlink" x="0px" y="0px"
	 viewBox="0 0 262.4 262.4" style="enable-background:new 0 0 262.4 262.4;" xml:space="preserve">
<style type="text/css">
	.st0{fill:#FFFFFF;}
</style>
<g>
	<path class="st0" d="M245.6,103.4h-9.9c-2.5-9.4-6.2-18.2-11-26.4l7-7c6.5-6.5,6.5-17.2,0-23.7l-15.6-15.6
		c-6.5-6.5-17.2-6.5-23.7,0l-7,7c-8.2-4.8-17.1-8.5-26.4-11v-9.9C159,7.5,151.5,0,142.2,0h-22.1c-9.3,0-16.8,7.5-16.8,16.8v9.9
		c-9.4,2.5-18.2,6.2-26.4,11l-7-7c-6.5-6.5-17.2-6.5-23.7,0L30.6,46.2c-6.5,6.5-6.5,17.2,0,23.7l7,7c-4.8,8.2-8.5,17.1-11,26.4h-9.9
		c-9.3,0-16.8,7.5-16.8,16.8v22.1c0,9.3,7.5,16.8,16.8,16.8h9.9c2.5,9.4,6.2,18.2,11,26.4l-7,7c-6.5,6.5-6.5,17.2,0,23.7l15.6,15.6
		c6.5,6.5,17.2,6.5,23.7,0l7-7c8.2,4.8,17.1,8.5,26.4,11v9.9c0,9.3,7.5,16.8,16.8,16.8h22.1c9.3,0,16.8-7.5,16.8-16.8v-9.9
		c9.4-2.5,18.2-6.2,26.4-11l7,7c6.5,6.5,17.2,6.5,23.7,0l15.6-15.6c3.1-3.1,4.9-7.4,4.9-11.9s-1.8-8.7-4.9-11.9l-7-7
		c4.8-8.2,8.5-17.1,11-26.4h9.9c9.3,0,16.8-7.5,16.8-16.8v-22.1C262.4,110.9,254.9,103.4,245.6,103.4z M131.2,191.2
		c-33.1,0-60-26.9-60-60c0-33.1,26.9-60,60-60s60,26.9,60,60C191.2,164.3,164.3,191.2,131.2,191.2z"/>
	<path class="st0" d="M131.2,101.2c-16.5,0-30,13.5-30,30c0,16.5,13.5,30,30,30s30-13.5,30-30C161.2,114.7,147.7,101.2,131.2,101.2z
		"/>
</g>
</svg>
