<?xml version="1.0" encoding="utf-8"?>
<!-- Generator: Adobe Illustrator 26.2.1, SVG Export Plug-In . SVG Version: 6.00 Build 0)  -->
<svg version="1.1" id="a" xmlns="http://www.w3.org/2000/svg" xmlns:xlink="http://www.w3.org/1999/xlink" x="0px" y="0px"
	 viewBox="0 0 311.5 266" style="enable-background:new 0 0 311.5 266;" xml:space="preserve">
<style type="text/css">
	.st0{fill:none;}
	.st1{fill:#FFFFFF;}
	.st2{fill:#6AAA64;}
</style>
<path class="st0" d="M0-55h311.5v230.4H0V-55z"/>
<path class="st1" d="M14.2,49.6c0,0,2,1.9,2.4,3.8v5.3c0,1.5-0.8,4.1-0.8,6c0,2.3,0.4,3,0.8,4.1s0.4,1.1,0.4,3c0,1.9-0.4,9-0.4,9
	l-0.4,5.6l1.2,2.6l1.6-1.5c0,0,0.4,1.1,1.2,2.3c0.8,1.1,3.9,2.3,3.9,2.3l3.9,1.1l12.6-4.9c0,0,1.6,1.1,2.8,1.5
	c1.2,0.4,5.1,2.3,7.1,2.6c2,0.4,3.1,0.8,4.7,0.8s3.1-0.4,4.7-1.1c1.6-0.4,3.5-1.1,3.5-1.1l0.8-4.5l-9.4-6l-2,1.5
	c0,0-0.8-6.4-1.2-9.8s-1.2-7.9-1.2-7.9l1.2-0.8c0,0-0.8-6-1.2-7.5c0-1.5,0.8-5.3,0.8-6s0.4-3,0.4-3v-2l-2.8-1.2L45.5,45l-5.7-2.3
	l-5.2,2.7l0.4,3.1h8.9l3.6,2.3v2.3l-1.2,1.2c0,0-0.4,3.9-0.4,6.6c-0.4,2.7-0.4,5.8-0.8,8.9c-0.4,3.9-1.2,7.4-2.4,10.5
	c0,0-4.8,2.7-7.3,3.9c-3.6,1.2-6.9,1.2-6.9,1.2l-5.6-2.3c-0.8-5.1-1.6-9.3-2-12.8c-0.4-1.2-0.4-1.6,0-3.1c0-1.2,0.8-5.4,0.8-5.4
	l-1.2-1.2c0,0,0.8-4.7,1.2-6.2c0.4-1.6,0.4-3.1,0.8-4.3c0-1.2,0.4-2.3,0.4-2.3L22.1,45c0,0-3.2-1.2-4.8-1.6C16,43.1,14,42.7,14,42.7
	h-2.4c-1.2,0-3.1,0.4-3.1,0.4l-2.4,2.3c0,0,0.4,1.1,0.8,1.5l0.4,0.8L8.5,48l1.6,1.9c0,0,1.6,0,2.8-0.4c0,0.4,1.2,0,1.2,0
	 M106.1,86.9c0,0-0.4,0.4-1.2,0.8c-1.2,0.4-2.8,0.4-2.8,0.4l-1.6-1.9c0,0,1.2-3.8,0.8-7.6c-0.8-3.8-3.6-8.7-3.6-8.7l6.7-5.7
	c0,0,1.6-4.9,1.6-5.7c0.4-0.8-0.4-3-0.4-4.9v-2.6l-5.5-6c0,0-5.1-1.5-7.1-1.9c-2-0.4-3.9,0-3.9,0l-1.6-1.9l-1.2,1.5
	c0,0-6.7-0.8-9.1-0.8s-3.9,0.4-5.5,0.4c-1.6,0.4-3.9,0.8-3.9,0.8h-0.7c0,0-0.4,1.3,0,2.8s0.8,2.3,0.8,2.3l7.1,1.9l0.8-1.1h0.8
	c0,0,0,1.9,0.4,3.7c0,1.9,0.4,3.4,0.4,3.4l-1.6,3c0,0,1.2,7.2,1.2,9.4c0,2.6-0.4,3.4-0.4,3.4l1.2,2.3l-1.2,11.3l-8,2.3v3.4l2.5,1.9
	c0,0,6.7-1.1,9.1-1.1c2,0,3.9,0.4,3.9,0.4l0.8-0.8c0,0,0.8,0.4,2,0.4c1.2,0.4,2,0.4,2,0.4l2.4-2.3l-1-1.1v-1.4h-3.2
	c-1.2,0-4.1-0.4-4.1-0.4L81.6,86v-8.4H82v-0.9h0.4V73l-0.4,0.4l-0.4-4.2l0.8-1.1l8.7,1.9l4.7,4.1l1.2,5.7c0,0-2,2.3-0.4,6.8
	c1.2,3.8,3.2,6,3.2,6l1.2-1.1l1.6,1.5l1.2-0.8c0.8,0.4,2,0.8,3.9,0.8l1.6-4.9L106.1,86.9L106.1,86.9L106.1,86.9z M96.2,62.5
	c0,0-4.3,1.1-5.5,1.5c-1.2,0.4-1.6,0.4-2.4,0.6h-1.2l-0.4,1.2l-2-2.6h-2.4c0,0.3-0.4-4.2-0.4-6.5c0-2.6-0.4-5.7-0.4-5.7l0.8-0.4
	c0,0,2.8-0.4,3.5-0.4c1.2,0,3.9-0.4,3.9-0.4l0.8,0.4l3.5-0.4l3.9,3.4c0,0-0.4,1.1-0.4,1.5s-0.4,1.1-0.4,1.1l0.8,0.8v1.9L96.2,62.5
	L96.2,62.5L96.2,62.5z M161.8,54.8c0,0-0.4-3-0.4-4.9c-0.4-1.9-0.4-3.4-0.4-3.4l-3.9-4.9c0,0-0.8-0.8-1.6-2.3s-2-4.5-2-4.5l-3.5-1.1
	h-1.6l-2.8-0.4h-2.1c-0.4,0.4-0.8,0-1.5,0.4c-0.8,0-2.3,0.7-3.9,1.5c-1.5,0.7-3.1,2.6-3.9,2.9c-0.4,0.4-1.2,1.5-1.2,1.5h-2.4
	l-0.8-1.5l2-9.8l-1.2-3.4l1.2-4.9c0,0-0.8-1.5-1.2-2.3c-0.4-0.8-0.8-1.9-0.8-1.9s-3.9-0.4-6.7-0.4c-4.3-0.4-7.1-1.1-7.9-0.8
	c-1.2,0.4-1.6,1.1-2.4,2.3c-0.4,1.1-0.8,2.3-0.8,2.3s1.2,2.3,3.2,3.4s2.8,1.5,3.9,1.9s3.2,0.8,3.2,0.8s1.2,4.5,1.6,6.8
	c0.4,2.3,0.8,3.4,0.8,4.5c0,1.5-0.4,6.1-0.8,9.8c-0.4,3.8-0.4,5.3-0.4,7.9s0.4,4.9,0.8,6.8s0.8,3,0.8,4.9c0.4,1.9,0,4.5-0.4,6.8
	c0,2.3-0.8,7.9-0.8,7.9h4.4l1.9-1.8h3.6l1.6,2.2h14.2c0,0,3.1-1.9,5.1-4.5c2-2.3,2.8-3.8,3.9-6.4c1.2-2.6,2-5.3,2.8-7.9
	c0.4-2.6,1.2-6.8,1.2-6.8L161.8,54.8L161.8,54.8L161.8,54.8z M153,63.1c-0.4,1.9-0.8,4.1-0.8,4.1s-0.8,0.8-2,2.3c-1.2,1.5-2,3-2,3
	s-1.2,0.4-2.4,1.5c-1.2,0.8-1.6,1.5-1.6,1.5s-1.6,0-2.8-0.8s-3.5-1.9-6.3-4.1c-3.1-1.9-5.1-5.3-5.1-5.3s0.4-0.8,0.4-2.3
	s-0.4-1.1-0.4-2.6s0-2.3,0.8-5.3c0.8-3,1.2-4.5,3.5-8.3c2.4-4.1,3.9-5.7,3.9-5.7v-0.4h2c0.8,0,0.8-0.4,2-0.4s0.4,0.4,2.4,0.4
	c2,0.4,2,0,2,0s1.2,1.9,2.4,3.4c1.2,1.1,2.4,3,2.4,3s0,0.8,0.4,2.3c0,1.5,0.4,3,0.4,3.4s-0.4,1.1-0.4,1.1s0.4,1.1,0.8,2.6
	c0.4,1.5,0.8,3,0.8,3S153.4,61.2,153,63.1L153,63.1L153,63.1z M186.7,45.4c0,0-1.2,1.1-1.2,1.5c-0.4,0.4-0.8,0.4-1.2,0.8
	c-0.3,0.3-0.7,0.5-1.2,0.8l-2.4,1.9h-3.3l-2-4.5c-0.4-0.8-0.8-1.1-0.8-1.9s0-3,0.4-5.2s0.8-3.4,0.8-3.4l3.1-2.2
	c1.6-0.8,3.9-2.2,5.1-2.6c1.2-0.4,1.6-0.4,2-0.8h0.8v-0.2c0,0,0.2-0.4,1-0.2h2.8c1.2-0.2,1.2,0.2,2.4,0.4h4.7
	c0.8,0.2,2.4,0.5,3.1,0.9c0.8,0.4,6.3,1.9,6.3,1.9s0.8,0.8,1.6,2.3c1.2,1.5,2,2.3,2,2.3s0.4,4.5,0.4,5.7c0,0.8,0.5,6.8,0.5,6.8v7.2
	h-0.8c0,0,0.4,1.9,0.4,3.1c0,1.5,0.4,3.1,0.4,3.1s0,0.4-0.4,0.8c-0.4,0.4-0.4,0.8-0.4,0.8s1.2,1.2,2,1.9c0.4,0.8,1.6,1.9,1.6,1.9
	s1.2,0,2-0.4c1.2,0,3.2-0.4,3.6-0.4h0.8c0,0,0,3,0.4,4.5c0,1.5,0.4,3.4,0.4,3.4l-3.5,3.7c0,0-1.6,0-2.7,0.4c-1.2,0-3.5,0.4-3.5,0.4
	s-2.3-1.5-3.5-2.2s-3.1-2.2-3.1-2.2l-5.9,3.7l-5.9,1.9h-6.6c-2.4,0-3.9,0-5.5-0.4c-1.6,0-4.3-0.4-4.3-0.4s-2-2.2-2.7-3s-2-2.2-2-2.2
	s-0.8-3.8-1.2-6.8c-0.4-3,0-6,0-6s0.8-1.5,1.6-2.6c0.8-1.1,2-3,2-3s5.9-1.9,7.4-2.2s2.4-0.8,3.5-0.8s0.8,0,2.7-0.4
	c1.6-0.4,3.9-1.5,5.5-2.2c1.2-0.8,2-1.1,2.4-1.5c0.4-0.4,0.8-0.8,0.8-0.8h1.2c0.8,0,2-0.8,3.1-1.1c0.8-0.4,1.6-0.4,1.6-0.4l1.2-1.1
	c0.8-0.4,1.2-0.8,1.2-0.8v-3.6c0,0-2-1.5-4.7-2.6s-4.3-1.9-5.5-2.3c-1.6-0.4-2-0.8-3.1-0.8c-1.6,0-2.8,0.4-3.1,0.8
	c-0.8,0-1.6,0.4-2.4,0.8c-0.4,0.4-0.8,0.4-1.2,1.1s-0.8,1.1-0.8,1.5s-0.4,0.4-0.4,0.4s0,1.1,0.4,2.3s1.6,2.3,1.6,2.6
	c0.4,0,0.8,0.4,0.8,0.4 M184.3,59.9l-5.9,3.8l0.4,5.7l2.4,3.4H192c0,0,1.9-0.4,3.1-1.1c1.2-0.4,3.1-1.1,3.5-1.1h0.4l3.5-5.6
	c0,0-0.4-1.9-0.4-3.7v-3.7H199c0,0-2.3,0.8-4.3,1.1s-1.6,0.8-3.1,1.1s-2.3,0-3.5,0h-4.3 M228.9,28.7l-5.1,4.1l0.8,2.6
	c0,0,1.6,0.4,2.4,0.8c1.2,0.4,2,0.4,2.8,0.8c0.4,0,1.2,0.4,1.2,0.4l1.2,1.1c0,0-0.8,2.3-0.8,2.6v0.4l1.2,3l1.2,2.6h-2.8v3.4l2.4,3
	c0,0,0,2.3-0.8,4.5c-0.8,2.3-1.6,3-1.6,3l0.8,0.8l-1.3,4.5v0.4l1.3,1.9l-0.4,2.6v1.5l-4.6,2.3l-2.3,4.5c0,0,1.5,0.8,3.1,1.1
	c1.5,0.4,1.9,0.8,3.8,0.8c1.9-0.4,2.7-1.1,2.7-1.1s1.5,0.4,2.7,0.8c1.1,0.4,2.7,0.8,2.7,0.8v-0.4l0.8,0.8l1.1-1.9h1.2
	c0.8,0.4,3.9,0.8,3.9,0.8l2.4-1.9v-2.3l-0.8-0.8c-0.8-0.8-1.2-1.9-1.2-1.9s-1.2,0.4-2,0c-0.8,0-4.3-1.5-4.3-1.5s-0.8-10.6-0.8-12.4
	s-0.8-9.4-0.8-9.4l0.8-0.8c0,0-0.4-4.5-0.8-5.3v-1.5c0-0.8,0.4-1.1,0.4-1.1s2.4,3,3.6,4.9c1.2,1.9,3.2,6,3.6,7.5
	c0.8,1.5,1.6,3,2,4.2c0.8,1.1,2.4,3.8,2.4,3.8s0-4.2-0.4-6.8c0-2.6-1.2-4.9-1.6-6.4s-2.4-5.3-2.4-5.3l0.8-2.6l-3.9-3.8l1.6-4.5
	l-2.8-2.6h-1.7c-1.2,0-2-0.4-2.8-0.4c-0.8-0.4-1.6-0.4-1.6-0.4l-0.8,0.8c0,0-2-0.4-3.5-0.8C230.9,29,228.9,28.7,228.9,28.7
	 M251.3,61.7c0,0,2.4,1.1,3.1,1.1h2.8v0.4h3.6v3.5l1.5,2.3l-0.6,0.8V70h0.3l0.4,7.2c0,0-0.8,0.7-1.2,1.4c-0.4,0.7-1.2,1.8-1.2,1.8
	s-1.6,0-3.1-0.7s-2.4-2.1-2.4-2.1v-2.1l-1.6-1.8h-1.6v-3.8l1.6-1.5c0,0-0.8-1.1-1.2-1.9s-0.8-1.5-0.8-1.5s0.4-1.9,0.8-2.6
	c-0.4,0-0.4-0.4-0.4-0.4 M257.7,61.5h2.7v-3c0,0,0.3-3.8,0.3-4.9s-0.4-1.5-0.3-2.3v-1.9c0.3-1.1,0.7-3.4,1.3-4.1v-1.8h-1l0.8-0.5
	c0,0,0-1.1-0.4-2.6c-0.4-1.1-0.4-2.3-0.4-2.3l0.8-0.8c0.4-0.4,0.8-0.8,0.8-0.8l3.5,0.8c0,0,1.2-0.8,2-1.9s1.2-1.9,1.6-2.3
	c0.4-0.4,0.4-1.1,0.4-1.1s-1.6-1.1-2.4-1.5c-0.8-0.4-2-1.4-2-1.4h-2c-1.6,0.4-3.1,0.4-4.7,0.8c-1.6,0-2,0.4-3.1,0s-2.4-0.8-2.4-0.8
	s-2.4,0.8-3.1,1.1c-0.8,0-2,0.8-2,0.8l-0.8,3l1.6,2.3c0,0,1.2,0.4,2.8,0.8c1.2,0.4,2.4,0.8,2.8,0.8l0.4-0.4l0.8,0.8l0.8,0.8
	c0,0,0.4,2.3,0.4,4.5c0.4,2.3,0.8,4.5,0.8,5.7s0.4,1.1,0,2.3c-0.8,0.4-1.6,4.5-1.6,4.5s0.4,1.1,0.8,2.6l0.8,3"/>
<path d="M122.7,78.1L274,83l1.4,37.3l-151.3-4.9L122.7,78.1L122.7,78.1z"/>
<g transform="translate(289.45 42.303)">
	<g>
		<path class="st2" d="M-106.6,44.9l-0.2,3.9l-1.3-0.1l-4.5,18l-5.9-0.3l-2.1-11.9l-3.4,11.6l-6-0.3l-2.5-18.4l-1.2-0.1l0.2-3.9
			l9,0.4l-0.2,3.9l-1.5-0.1l1.1,11.4l4.3-15.1l4,0.2l2.5,15.4l2.5-11.3l-1.7-0.1l0.2-3.9L-106.6,44.9L-106.6,44.9z"/>
		<path class="st2" d="M-100.8,51.9c2.2,0.1,3.8,0.9,4.9,2.2c1.1,1.4,1.6,3.4,1.4,6c-0.2,5.3-2.6,7.8-7.1,7.6s-6.6-2.9-6.3-8.2
			c0.1-2.6,0.8-4.6,2-5.9S-102.9,51.8-100.8,51.9L-100.8,51.9L-100.8,51.9z M-102.6,63c0.2,0.6,0.6,1,1.2,1s1.1-0.3,1.3-0.9
			c0.2-0.6,0.4-1.7,0.4-3.3s0-2.7-0.2-3.3c-0.2-0.6-0.5-0.9-1.1-1s-1,0.3-1.3,0.9s-0.4,1.7-0.5,3.2S-102.7,62.4-102.6,63L-102.6,63
			L-102.6,63z"/>
		<path class="st2" d="M-82.1,53l-0.2,4.5c-1.6-0.1-2.8,0.1-3.4,0.6s-1,1.7-1.1,3.3l-0.1,3.1l1.7,0.1l-0.2,3.5l-8-0.4l0.2-3.5
			l1.4,0.1l0.4-8.1l-1.4-0.1l0.2-3.5l6.1,0.3l-0.1,2.5c0.5-0.8,1.1-1.4,1.9-1.9c0.8-0.5,1.6-0.7,2.5-0.6L-82.1,53L-82.1,53z"/>
		<path class="st2" d="M-67.5,65.5l-0.2,3.5l-6.4-0.3L-74,67c-0.2,0.5-0.6,1-1.3,1.4c-0.6,0.4-1.4,0.5-2.1,0.5
			c-0.7,0-1.3-0.2-1.8-0.4c-0.5-0.3-1-0.7-1.4-1.3c-0.4-0.6-0.7-1.5-0.9-2.6c-0.2-1.1-0.2-2.5-0.1-4.1c0.1-2.9,0.6-4.9,1.5-5.9
			c0.9-1.1,2.1-1.5,3.5-1.5c1.5,0.1,2.6,0.8,3.3,2.2l0.2-5.3l-1.5-0.1l0.2-3.5l6.6,0.3l-0.9,18.6L-67.5,65.5L-67.5,65.5z
			 M-75.2,65.2c0.6,0,1.1-0.2,1.3-0.8c0.2-0.6,0.4-1.6,0.4-3.1s0-2.6-0.2-3.2c-0.2-0.6-0.5-0.9-1.1-0.9s-1,0.2-1.3,0.8
			c-0.2,0.6-0.4,1.6-0.4,3.1l-0.1,1.2c0,0.3,0,0.6,0,1c0,0.4,0,0.6,0.1,0.8c0.1,0.2,0.1,0.4,0.2,0.6c0.1,0.2,0.2,0.3,0.4,0.4
			C-75.6,65.1-75.4,65.2-75.2,65.2L-75.2,65.2L-75.2,65.2z"/>
		<path class="st2" d="M-58.3,66l-0.2,3.5l-7.7-0.4l0.2-3.5l1.2,0.1l0.7-15.1l-1.4-0.1l0.2-3.5l6.5,0.3l-0.9,18.6L-58.3,66L-58.3,66
			z"/>
		<path class="st2" d="M-55.2,56c1.3-1.2,3-1.8,4.9-1.7s3.5,0.8,4.6,2.1c1.1,1.3,1.6,3.4,1.4,6.2c0,0.3-0.1,0.8-0.1,1.3l-7.9-0.4
			c-0.1,1.2,0,2,0.3,2.5c0.2,0.5,0.7,0.7,1.3,0.8c0.9,0,1.6-0.5,1.9-1.6l4.3,0.2c-1,3.3-3.1,4.9-6.4,4.8c-2.3-0.1-3.9-0.8-5.1-2
			c-1.1-1.2-1.6-3.3-1.4-6.2C-57.2,59.2-56.5,57.2-55.2,56L-55.2,56L-55.2,56z M-52.1,61.2l3.1,0.1l0-0.4c0.1-1,0-1.8-0.2-2.3
			c-0.2-0.5-0.6-0.8-1.2-0.9c-0.2,0-0.5,0-0.7,0.1c-0.2,0.1-0.3,0.2-0.5,0.4c-0.1,0.2-0.2,0.4-0.3,0.5c-0.1,0.1-0.1,0.4-0.2,0.8
			c0,0.3-0.1,0.6-0.1,0.8L-52.1,61.2L-52.1,61.2L-52.1,61.2z"/>
	</g>
</g>
</svg>
