<?xml version="1.0" encoding="utf-8"?>
<!-- Generator: Adobe Illustrator 26.2.1, SVG Export Plug-In . SVG Version: 6.00 Build 0)  -->
<svg version="1.1" id="a" xmlns="http://www.w3.org/2000/svg" xmlns:xlink="http://www.w3.org/1999/xlink" x="0px" y="0px"
	 viewBox="0 0 311.5 230.4" style="enable-background:new 0 0 311.5 230.4;" xml:space="preserve">
<style type="text/css">
	.st0{fill:none;}
	.st1{fill:#FFFFFF;}
	.st2{fill:#6AAA64;}
</style>
<g>
	<path class="st0" d="M0-56.6h311.5v230.4H0V-56.6z"/>
	<path class="st1" d="M14.2,48.1c0,0,2,1.9,2.4,3.8v5.3c0,1.5-0.8,4.1-0.8,6c0,2.3,0.4,3,0.8,4.1s0.4,1.1,0.4,3c0,1.9-0.4,9-0.4,9
		L16.2,85l1.2,2.6l1.6-1.5c0,0,0.4,1.1,1.2,2.3c0.8,1.1,3.9,2.3,3.9,2.3l3.9,1.1l12.6-4.9c0,0,1.6,1.1,2.8,1.5
		c1.2,0.4,5.1,2.3,7.1,2.6c2,0.4,3.1,0.8,4.7,0.8s3.1-0.4,4.7-1.1c1.6-0.4,3.5-1.1,3.5-1.1l0.8-4.5l-9.4-6l-2,1.5
		c0,0-0.8-6.4-1.2-9.8s-1.2-7.9-1.2-7.9l1.2-0.8c0,0-0.8-6-1.2-7.5c0-1.5,0.8-5.3,0.8-6s0.4-3,0.4-3v-2l-2.8-1.2l-3.2,1.2l-5.7-2.3
		l-5.2,2.7L35,47h8.9l3.6,2.3v2.3l-1.2,1.2c0,0-0.4,3.9-0.4,6.6c-0.4,2.7-0.4,5.8-0.8,8.9c-0.4,3.9-1.2,7.4-2.4,10.5
		c0,0-4.8,2.7-7.3,3.9c-3.6,1.2-6.9,1.2-6.9,1.2l-5.6-2.3c-0.8-5.1-1.6-9.3-2-12.8c-0.4-1.2-0.4-1.6,0-3.1c0-1.2,0.8-5.4,0.8-5.4
		L20.5,59c0,0,0.8-4.7,1.2-6.2c0.4-1.6,0.4-3.1,0.8-4.3c0-1.2,0.4-2.3,0.4-2.3l-0.8-2.7c0,0-3.2-1.2-4.8-1.6
		C16,41.6,14,41.2,14,41.2h-2.4c-1.2,0-3.1,0.4-3.1,0.4l-2.4,2.3c0,0,0.4,1.1,0.8,1.5l0.4,0.8l1.2,0.4l1.6,1.9c0,0,1.6,0,2.8-0.4
		c0,0.4,1.2,0,1.2,0 M106.1,85.4c0,0-0.4,0.4-1.2,0.8c-1.2,0.4-2.8,0.4-2.8,0.4l-1.6-1.9c0,0,1.2-3.8,0.8-7.6
		c-0.8-3.8-3.6-8.7-3.6-8.7l6.7-5.7c0,0,1.6-4.9,1.6-5.7c0.4-0.8-0.4-3-0.4-4.9v-2.6l-5.5-6c0,0-5.1-1.5-7.1-1.9c-2-0.4-3.9,0-3.9,0
		l-1.6-1.9l-1.2,1.5c0,0-6.7-0.8-9.1-0.8s-3.9,0.4-5.5,0.4c-1.6,0.4-3.9,0.8-3.9,0.8h-0.7c0,0-0.4,1.3,0,2.8s0.8,2.3,0.8,2.3
		l7.1,1.9l0.8-1.1h0.8c0,0,0,1.9,0.4,3.7c0,1.9,0.4,3.4,0.4,3.4l-1.6,3c0,0,1.2,7.2,1.2,9.4c0,2.6-0.4,3.4-0.4,3.4l1.2,2.3
		l-1.2,11.3l-8,2.3v3.4l2.5,1.9c0,0,6.7-1.1,9.1-1.1c2,0,3.9,0.4,3.9,0.4l0.8-0.8c0,0,0.8,0.4,2,0.4c1.2,0.4,2,0.4,2,0.4l2.4-2.3
		l-1-1.1V86h-3.2c-1.2,0-4.1-0.4-4.1-0.4l-1.2-1.1v-8.4H82v-0.9h0.4v-3.8l-0.4,0.4l-0.4-4.2l0.8-1.1l8.7,1.9l4.7,4.1l1.2,5.7
		c0,0-2,2.3-0.4,6.8c1.2,3.8,3.2,6,3.2,6l1.2-1.1l1.6,1.5l1.2-0.8c0.8,0.4,2,0.8,3.9,0.8l1.6-4.9L106.1,85.4L106.1,85.4L106.1,85.4z
		 M96.2,61c0,0-4.3,1.1-5.5,1.5c-1.2,0.4-1.6,0.4-2.4,0.6h-1.2l-0.4,1.2l-2-2.6h-2.4c0,0.3-0.4-4.2-0.4-6.5c0-2.6-0.4-5.7-0.4-5.7
		l0.8-0.4c0,0,2.8-0.4,3.5-0.4c1.2,0,3.9-0.4,3.9-0.4l0.8,0.4l3.5-0.4l3.9,3.4c0,0-0.4,1.1-0.4,1.5s-0.4,1.1-0.4,1.1l0.8,0.8v1.9
		L96.2,61L96.2,61L96.2,61z M161.8,53.3c0,0-0.4-3-0.4-4.9c-0.4-1.9-0.4-3.4-0.4-3.4l-3.9-4.9c0,0-0.8-0.8-1.6-2.3s-2-4.5-2-4.5
		l-3.5-1.1h-1.6l-2.8-0.4h-2.1c-0.4,0.4-0.8,0-1.5,0.4c-0.8,0-2.3,0.7-3.9,1.5c-1.5,0.7-3.1,2.6-3.9,2.9c-0.4,0.4-1.2,1.5-1.2,1.5
		h-2.4l-0.8-1.5l2-9.8l-1.2-3.4l1.2-4.9c0,0-0.8-1.5-1.2-2.3c-0.4-0.8-0.8-1.9-0.8-1.9s-3.9-0.4-6.7-0.4c-4.3-0.4-7.1-1.1-7.9-0.8
		c-1.2,0.4-1.6,1.1-2.4,2.3c-0.4,1.1-0.8,2.3-0.8,2.3s1.2,2.3,3.2,3.4s2.8,1.5,3.9,1.9s3.2,0.8,3.2,0.8s1.2,4.5,1.6,6.8
		c0.4,2.3,0.8,3.4,0.8,4.5c0,1.5-0.4,6.1-0.8,9.8c-0.4,3.8-0.4,5.3-0.4,7.9s0.4,4.9,0.8,6.8s0.8,3,0.8,4.9c0.4,1.9,0,4.5-0.4,6.8
		c0,2.3-0.8,7.9-0.8,7.9h4.4l1.9-1.8h3.6l1.6,2.2h14.2c0,0,3.1-1.9,5.1-4.5c2-2.3,2.8-3.8,3.9-6.4c1.2-2.6,2-5.3,2.8-7.9
		c0.4-2.6,1.2-6.8,1.2-6.8L161.8,53.3L161.8,53.3L161.8,53.3z M153,61.6c-0.4,1.9-0.8,4.1-0.8,4.1s-0.8,0.8-2,2.3c-1.2,1.5-2,3-2,3
		s-1.2,0.4-2.4,1.5c-1.2,0.8-1.6,1.5-1.6,1.5s-1.6,0-2.8-0.8s-3.5-1.9-6.3-4.1c-3.1-1.9-5.1-5.3-5.1-5.3s0.4-0.8,0.4-2.3
		s-0.4-1.1-0.4-2.6s0-2.3,0.8-5.3c0.8-3,1.2-4.5,3.5-8.3c2.4-4.1,3.9-5.7,3.9-5.7v-0.4h2c0.8,0,0.8-0.4,2-0.4s0.4,0.4,2.4,0.4
		c2,0.4,2,0,2,0s1.2,1.9,2.4,3.4c1.2,1.1,2.4,3,2.4,3s0,0.8,0.4,2.3c0,1.5,0.4,3,0.4,3.4s-0.4,1.1-0.4,1.1s0.4,1.1,0.8,2.6
		c0.4,1.5,0.8,3,0.8,3S153.4,59.7,153,61.6L153,61.6L153,61.6z M186.7,43.9c0,0-1.2,1.1-1.2,1.5c-0.4,0.4-0.8,0.4-1.2,0.8
		c-0.3,0.3-0.7,0.5-1.2,0.8l-2.4,1.9h-3.3l-2-4.5c-0.4-0.8-0.8-1.1-0.8-1.9s0-3,0.4-5.2s0.8-3.4,0.8-3.4l3.1-2.2
		c1.6-0.8,3.9-2.2,5.1-2.6c1.2-0.4,1.6-0.4,2-0.8h0.8v-0.2c0,0,0.2-0.4,1-0.2h2.8c1.2-0.2,1.2,0.2,2.4,0.4h4.7
		c0.8,0.2,2.4,0.5,3.1,0.9c0.8,0.4,6.3,1.9,6.3,1.9s0.8,0.8,1.6,2.3c1.2,1.5,2,2.3,2,2.3s0.4,4.5,0.4,5.7c0,0.8,0.5,6.8,0.5,6.8v7.2
		h-0.8c0,0,0.4,1.9,0.4,3.1c0,1.5,0.4,3.1,0.4,3.1s0,0.4-0.4,0.8c-0.4,0.4-0.4,0.8-0.4,0.8s1.2,1.2,2,1.9c0.4,0.8,1.6,1.9,1.6,1.9
		s1.2,0,2-0.4c1.2,0,3.2-0.4,3.6-0.4h0.8c0,0,0,3,0.4,4.5c0,1.5,0.4,3.4,0.4,3.4l-3.5,3.7c0,0-1.6,0-2.7,0.4c-1.2,0-3.5,0.4-3.5,0.4
		s-2.3-1.5-3.5-2.2s-3.1-2.2-3.1-2.2l-5.9,3.7l-5.9,1.9h-6.6c-2.4,0-3.9,0-5.5-0.4c-1.6,0-4.3-0.4-4.3-0.4s-2-2.2-2.7-3
		s-2-2.2-2-2.2s-0.8-3.8-1.2-6.8c-0.4-3,0-6,0-6s0.8-1.5,1.6-2.6c0.8-1.1,2-3,2-3s5.9-1.9,7.4-2.2s2.4-0.8,3.5-0.8s0.8,0,2.7-0.4
		c1.6-0.4,3.9-1.5,5.5-2.2c1.2-0.8,2-1.1,2.4-1.5c0.4-0.4,0.8-0.8,0.8-0.8h1.2c0.8,0,2-0.8,3.1-1.1c0.8-0.4,1.6-0.4,1.6-0.4l1.2-1.1
		c0.8-0.4,1.2-0.8,1.2-0.8V40c0,0-2-1.5-4.7-2.6s-4.3-1.9-5.5-2.3c-1.6-0.4-2-0.8-3.1-0.8c-1.6,0-2.8,0.4-3.1,0.8
		c-0.8,0-1.6,0.4-2.4,0.8c-0.4,0.4-0.8,0.4-1.2,1.1s-0.8,1.1-0.8,1.5s-0.4,0.4-0.4,0.4s0,1.1,0.4,2.3s1.6,2.3,1.6,2.6
		c0.4,0,0.8,0.4,0.8,0.4 M184.3,58.4l-5.9,3.8l0.4,5.7l2.4,3.4H192c0,0,1.9-0.4,3.1-1.1c1.2-0.4,3.1-1.1,3.5-1.1h0.4l3.5-5.6
		c0,0-0.4-1.9-0.4-3.7v-3.7H199c0,0-2.3,0.8-4.3,1.1s-1.6,0.8-3.1,1.1s-2.3,0-3.5,0h-4.3 M228.9,27.2l-5.1,4.1l0.8,2.6
		c0,0,1.6,0.4,2.4,0.8c1.2,0.4,2,0.4,2.8,0.8c0.4,0,1.2,0.4,1.2,0.4l1.2,1.1c0,0-0.8,2.3-0.8,2.6V40l1.2,3l1.2,2.6h-2.8V49l2.4,3
		c0,0,0,2.3-0.8,4.5c-0.8,2.3-1.6,3-1.6,3l0.8,0.8l-1.3,4.5v0.4l1.3,1.9l-0.4,2.6v1.5l-4.6,2.3l-2.3,4.5c0,0,1.5,0.8,3.1,1.1
		c1.5,0.4,1.9,0.8,3.8,0.8c1.9-0.4,2.7-1.1,2.7-1.1s1.5,0.4,2.7,0.8c1.1,0.4,2.7,0.8,2.7,0.8v-0.4l0.8,0.8l1.1-1.9h1.2
		c0.8,0.4,3.9,0.8,3.9,0.8l2.4-1.9v-2.3l-0.8-0.8c-0.8-0.8-1.2-1.9-1.2-1.9s-1.2,0.4-2,0c-0.8,0-4.3-1.5-4.3-1.5s-0.8-10.6-0.8-12.4
		s-0.8-9.4-0.8-9.4l0.8-0.8c0,0-0.4-4.5-0.8-5.3v-1.5c0-0.8,0.4-1.1,0.4-1.1s2.4,3,3.6,4.9c1.2,1.9,3.2,6,3.6,7.5
		c0.8,1.5,1.6,3,2,4.2c0.8,1.1,2.4,3.8,2.4,3.8s0-4.2-0.4-6.8c0-2.6-1.2-4.9-1.6-6.4s-2.4-5.3-2.4-5.3l0.8-2.6l-3.9-3.8l1.6-4.5
		L242,29h-1.7c-1.2,0-2-0.4-2.8-0.4c-0.8-0.4-1.6-0.4-1.6-0.4l-0.8,0.8c0,0-2-0.4-3.5-0.8C230.9,27.5,228.9,27.2,228.9,27.2
		 M251.3,60.2c0,0,2.4,1.1,3.1,1.1h2.8v0.4h3.6v3.5l1.5,2.3l-0.6,0.8v0.2h0.3l0.4,7.2c0,0-0.8,0.7-1.2,1.4c-0.4,0.7-1.2,1.8-1.2,1.8
		s-1.6,0-3.1-0.7s-2.4-2.1-2.4-2.1v-2.1l-1.6-1.8h-1.6v-3.8l1.6-1.5c0,0-0.8-1.1-1.2-1.9s-0.8-1.5-0.8-1.5s0.4-1.9,0.8-2.6
		c-0.4,0-0.4-0.4-0.4-0.4 M257.7,59.9h2.7v-3c0,0,0.3-3.8,0.3-4.9s-0.4-1.5-0.3-2.3v-1.9c0.3-1.1,0.7-3.4,1.3-4.1V42h-1l0.8-0.5
		c0,0,0-1.1-0.4-2.6c-0.4-1.1-0.4-2.3-0.4-2.3l0.8-0.8c0.4-0.4,0.8-0.8,0.8-0.8l3.5,0.8c0,0,1.2-0.8,2-1.9s1.2-1.9,1.6-2.3
		c0.4-0.4,0.4-1.1,0.4-1.1s-1.6-1.1-2.4-1.5c-0.8-0.4-2-1.4-2-1.4h-2c-1.6,0.4-3.1,0.4-4.7,0.8c-1.6,0-2,0.4-3.1,0s-2.4-0.8-2.4-0.8
		s-2.4,0.8-3.1,1.1c-0.8,0-2,0.8-2,0.8l-0.8,3l1.6,2.3c0,0,1.2,0.4,2.8,0.8c1.2,0.4,2.4,0.8,2.8,0.8l0.4-0.4l0.8,0.8l0.8,0.8
		c0,0,0.4,2.3,0.4,4.5c0.4,2.3,0.8,4.5,0.8,5.7s0.4,1.1,0,2.3c-0.8,0.4-1.6,4.5-1.6,4.5s0.4,1.1,0.8,2.6l0.8,3"/>
	<path d="M122.7,76.6L274,81.5l1.4,37.3l-151.3-4.9L122.7,76.6L122.7,76.6z"/>
</g>
<g transform="translate(289.45 42.303)">
	<path class="st2" d="M-121.5,43.4l-0.1,4l-1.3,0l-4,18.3l-6-0.1l-2.5-12l-3.1,11.8l-6-0.1l-3-18.5l-1.2,0l0.1-4l9.1,0.2l-0.1,4
		l-1.6,0l1.4,11.5l3.9-15.4l4,0.1l2.9,15.5l2.2-11.4l-1.7,0l0.1-4L-121.5,43.4L-121.5,43.4z"/>
	<path class="st2" d="M-108.9,50.4c2.2,0.1,3.8,0.8,5,2.1c1.1,1.3,1.7,3.4,1.6,6.1c-0.1,5.3-2.4,7.9-6.9,7.8
		c-4.5-0.1-6.7-2.8-6.6-8.1c0.1-2.7,0.7-4.7,1.9-6C-112.8,51-111.1,50.4-108.9,50.4L-108.9,50.4L-108.9,50.4z M-110.5,61.7
		c0.2,0.6,0.6,1,1.2,1s1.1-0.3,1.3-0.9c0.2-0.6,0.3-1.8,0.4-3.3s-0.1-2.7-0.2-3.3c-0.2-0.6-0.6-0.9-1.2-0.9s-1,0.3-1.3,0.9
		c-0.2,0.6-0.4,1.7-0.4,3.3S-110.6,61-110.5,61.7L-110.5,61.7L-110.5,61.7z"/>
	<path class="st2" d="M-85.4,51.1l-0.1,4.6c-1.6-0.1-2.8,0.1-3.4,0.7s-1,1.7-1,3.4L-90,63l1.6,0l-0.1,3.5l-8.1-0.2l0.1-3.5l1.4,0
		l0.2-8.2l-1.4,0l0.1-3.5l6.1,0.1l-0.1,2.5c0.5-0.8,1.1-1.5,1.8-1.9c0.8-0.5,1.6-0.7,2.5-0.7L-85.4,51.1L-85.4,51.1z"/>
	<path class="st2" d="M-65.2,63.5l-0.1,3.5l-6.5-0.1l0-1.7c-0.2,0.6-0.6,1-1.3,1.4c-0.6,0.4-1.4,0.6-2.1,0.6c-0.7,0-1.4-0.1-1.9-0.4
		c-0.5-0.2-1-0.7-1.4-1.2c-0.4-0.6-0.7-1.5-0.9-2.6c-0.2-1.1-0.3-2.5-0.3-4.1c0.1-2.9,0.5-4.9,1.4-6c0.9-1.1,2-1.6,3.5-1.6
		c1.6,0,2.7,0.8,3.4,2.1l0.1-5.3l-1.6,0l0.1-3.5l6.6,0.1l-0.4,18.8L-65.2,63.5L-65.2,63.5z M-73,63.3c0.7,0,1.1-0.3,1.3-0.9
		c0.2-0.6,0.3-1.7,0.4-3.2s-0.1-2.6-0.2-3.2c-0.2-0.6-0.6-0.9-1.2-0.9s-1,0.3-1.3,0.9c-0.2,0.6-0.3,1.6-0.4,3.2l0,1.2
		c0,0.3,0,0.6,0,1c0,0.4,0.1,0.6,0.1,0.8c0.1,0.2,0.1,0.4,0.2,0.6c0.1,0.2,0.2,0.3,0.4,0.4C-73.5,63.3-73.3,63.3-73,63.3L-73,63.3
		L-73,63.3z"/>
	<path class="st2" d="M-51.3,63.8l-0.1,3.5l-7.8-0.2l0.1-3.5l1.3,0l0.3-15.3l-1.4,0l0.1-3.6l6.6,0.1l-0.4,18.9L-51.3,63.8
		L-51.3,63.8z"/>
	<path class="st2" d="M-43.3,53.8c1.3-1.3,2.9-1.9,4.9-1.8s3.5,0.7,4.7,2.1c1.1,1.3,1.7,3.4,1.6,6.2c0,0.3,0,0.8-0.1,1.3l-8-0.2
		c0,1.2,0.1,2,0.4,2.5c0.3,0.5,0.7,0.7,1.4,0.7c0.9,0,1.6-0.5,1.9-1.6l4.4,0.1c-0.9,3.4-3,5.1-6.3,5c-2.3-0.1-4-0.7-5.2-1.9
		c-1.1-1.2-1.7-3.3-1.6-6.3C-45.2,57.1-44.6,55-43.3,53.8L-43.3,53.8L-43.3,53.8z M-40.1,59l3.2,0.1v-0.4c0-1-0.1-1.8-0.3-2.3
		c-0.2-0.5-0.6-0.8-1.2-0.8c-0.3,0-0.5,0-0.7,0.1c-0.2,0.1-0.3,0.2-0.5,0.4c-0.1,0.2-0.2,0.4-0.3,0.5c-0.1,0.1-0.1,0.4-0.2,0.8
		c0,0.3-0.1,0.6-0.1,0.8L-40.1,59L-40.1,59L-40.1,59z"/>
</g>
</svg>
